<?xml version="1.0" encoding="utf-8"?>
<!-- Generator: Adobe Illustrator 22.0.1, SVG Export Plug-In . SVG Version: 6.00 Build 0)  -->
<svg version="1.1" id="Calque_1" xmlns="http://www.w3.org/2000/svg" xmlns:xlink="http://www.w3.org/1999/xlink" x="0px" y="0px"
	 viewBox="0 0 86.8 86.8" style="enable-background:new 0 0 86.8 86.8;" xml:space="preserve">
<style type="text/css">
	.st0{fill:#00008C;}
	.st1{fill:#FFFFFF;}
</style>
<circle class="st0" cx="43.4" cy="43.4" r="43.4"/>
<title>qr-code-scan-qrcode</title>
<path class="st1" d="M31.4,13.4c-2.2,0-4,1.8-4,4v50c0,2.2,1.8,4,4,4h24c2.2,0,4-1.8,4-4v-50c0-2.2-1.8-4-4-4H31.4z M29.4,23.4h28
	v38h-28V23.4z M55.4,69.4h-24c-1.1,0-2-0.9-2-2v-4h28v4C57.4,68.5,56.5,69.4,55.4,69.4z M57.4,17.4v4h-28v-4c0-1.1,0.9-2,2-2h24
	C56.5,15.4,57.4,16.3,57.4,17.4z"/>
<rect x="42.4" y="65.4" class="st1" width="2" height="2"/>
<rect x="39.4" y="17.4" class="st1" width="8" height="2"/>
<path class="st1" d="M32.4,31.4v22h22v-22H32.4z M52.4,45.4h-4v2h-6v4h-2v-4h-2v-2h-4v-2h4v-6h10v4h-2v-2h-6v6h6v-2h4v-8h-6v-2h8
	V45.4z M44.4,41.4v2h-2v-2H44.4z M42.4,33.4v2h-6v6h-2v-8H42.4z M34.4,47.4h2v2h2v2h-4V47.4z M44.4,51.4v-2h6v-2h2v4H44.4z"/>
</svg>
